<?xml version="1.0" encoding="UTF-8"?>
<svg version="1.1" xmlns="http://www.w3.org/2000/svg" width="512" height="512">
<path d="M0 0 C1.58370469 -0.00417567 3.16740639 -0.00965446 4.75110257 -0.01631981 C9.09198584 -0.03076268 13.43267906 -0.02653332 17.77357268 -0.019153 C22.45943845 -0.01442075 27.14526314 -0.0269317 31.83111572 -0.03717041 C41.00692245 -0.05436278 50.18266071 -0.05519749 59.35847937 -0.04995751 C66.81721113 -0.0459153 74.27592267 -0.04735997 81.73465347 -0.05270576 C83.32730482 -0.0538284 83.32730482 -0.0538284 84.95213095 -0.05497371 C87.10914937 -0.0565052 89.26616779 -0.05804354 91.4231862 -0.05958868 C111.64952383 -0.07331537 131.87582277 -0.06787489 152.10215952 -0.05640347 C170.60213246 -0.04647149 189.10200539 -0.05941086 207.60196291 -0.08333766 C226.60230338 -0.10772629 245.60259726 -0.11733707 264.60295308 -0.11068493 C275.26837073 -0.10719212 285.93371146 -0.1094289 296.59911728 -0.12693596 C305.67859666 -0.14165498 314.75794496 -0.14229728 323.83742176 -0.12486505 C328.4685577 -0.11635014 333.09945944 -0.11421751 337.73058319 -0.1295166 C341.97334357 -0.14335903 346.21566901 -0.13860634 350.4584042 -0.11927737 C351.98996012 -0.11551567 353.52155085 -0.11844426 355.05307578 -0.12888902 C367.20827715 -0.20586484 377.51837501 1.63024214 386.52713013 10.38768005 C393.69093163 19.25487436 395.61139543 27.94293197 394.8039856 39.22654724 C392.64861188 56.05138685 380.66251445 71.84673046 371.60916138 85.64549255 C368.02075024 91.13337402 364.55618405 96.69731325 361.08963013 102.26268005 C355.08632881 111.89444174 349.04835362 121.50313099 342.97879028 131.09324646 C340.49239483 135.02313958 338.00995717 138.95553188 335.52713013 142.88768005 C332.56414877 147.58026699 329.60054208 152.2724481 326.63259888 156.9618988 C321.07041313 165.75374079 315.5366255 174.56271142 310.02713013 183.38768005 C303.08727506 194.50376223 296.0976374 205.58756435 289.08865356 216.66014099 C282.39263388 227.24066702 275.73557951 237.84471064 269.10525513 248.46653748 C264.72906572 255.47394447 260.3325591 262.46807356 255.90994263 269.4462738 C255.02440791 270.84462564 254.15574383 272.25378074 253.30284119 273.67227173 C251.52713013 276.38768005 251.52713013 276.38768005 249.07649231 279.355896 C239.52674654 291.53463939 240.17481279 304.10358543 240.44298792 319.02493834 C240.49299714 322.47274878 240.48186093 325.92037764 240.47680664 329.36846924 C240.47553028 335.88726633 240.52132159 342.40472069 240.58772457 348.9231475 C240.70547485 360.58751593 240.75122552 372.2521821 240.76581371 383.91710263 C240.77174939 387.33422502 240.78841356 390.75065466 240.82959366 394.16754723 C240.87466941 397.97822736 240.89623291 401.78846067 240.91433716 405.59934998 C240.94544838 407.2588266 240.94544838 407.2588266 240.97718811 408.951828 C240.98513288 424.50745746 234.88669323 438.46191667 224.27322388 449.7197113 C216.08251806 457.67739562 207.20444067 464.89713882 198.33572388 472.0790863 C195.02414533 474.80112096 191.77399954 477.58907736 188.52713013 480.38768005 C183.54311447 484.68285349 178.50076413 488.88904224 173.38259888 493.0243988 C171.22574569 494.8094825 169.11345969 496.61769189 167.01541138 498.4697113 C166.40568481 499.00467224 165.79595825 499.53963318 165.16775513 500.09080505 C163.98821961 501.12919957 162.8145572 502.17432212 161.64822388 503.2275238 C153.38455492 510.482482 145.30477677 512.9716324 134.33572388 512.7275238 C126.63618135 512.0404877 121.74382967 508.2444921 116.81619263 502.5243988 C113.14883563 496.44547676 112.08753359 490.93935461 112.2293396 483.99436951 C112.23327626 483.18775722 112.23721292 482.38114492 112.24126887 481.55008984 C112.25764412 478.86673128 112.29537662 476.18410229 112.33279419 473.5009613 C112.34834798 471.56831499 112.36235047 469.63565567 112.37492371 467.70298767 C112.40381294 463.54730087 112.44079829 459.39179137 112.48322296 455.23622131 C112.54757697 448.64245896 112.57593544 442.04884682 112.59616089 435.45481873 C112.59976096 434.33883206 112.60336104 433.2228454 112.60707021 432.07304096 C112.61441981 429.79099037 112.62171382 427.5089396 112.62895346 425.22688866 C112.67969135 409.88670107 112.75615359 394.54740904 112.9211731 379.20799255 C113.03235104 368.84747687 113.08905106 358.48816231 113.0854795 348.12703228 C113.08576751 342.65665962 113.11256969 337.18949427 113.20658112 331.71986389 C113.96380544 298.79724157 113.96380544 298.79724157 98.391716 270.66548157 C95.37933498 266.98551909 92.98596238 262.94813491 90.52713013 258.88768005 C89.56131133 257.35457954 88.59289581 255.82310913 87.62088013 254.29393005 C84.06958088 248.67103958 80.54869984 243.02921961 77.02713013 237.38768005 C70.56212267 227.03203718 64.05661391 216.70275729 57.52713013 206.38768005 C50.34911914 195.04807954 43.20806277 183.68636532 36.1008606 172.30223083 C30.7555262 163.74394371 25.3750357 155.20836402 19.97879028 146.68211365 C16.98923165 141.95694176 14.00507397 137.22835625 11.01980591 132.50047302 C8.55908647 128.60373491 6.09725929 124.70770817 3.63259888 120.8134613 C-3.82215764 109.03066181 -11.22646812 97.21688392 -18.60031128 85.38328552 C-20.43834672 82.4429081 -22.28821504 79.51028869 -24.14083862 76.5790863 C-25.29329647 74.74452255 -26.44564524 72.90989028 -27.59786987 71.07518005 C-28.11792603 70.25872009 -28.63798218 69.44226013 -29.17379761 68.60105896 C-32.8333451 62.75032676 -35.74823673 56.72328031 -38.47286987 50.38768005 C-38.8042395 49.63510925 -39.13560913 48.88253845 -39.47702026 48.10716248 C-42.69018117 40.52697528 -42.81334044 30.52615057 -40.74630737 22.6025238 C-39.81005069 20.38367159 -38.75645709 18.42284136 -37.47286987 16.38768005 C-37.12224487 15.76635193 -36.77161987 15.1450238 -36.41036987 14.50486755 C-28.23418533 1.38890485 -14.02806781 -0.06011508 0 0 Z M3.52713013 41.38768005 C7.49319099 48.65879163 11.48168285 55.64927837 15.96463013 62.57518005 C17.20119536 64.5016936 18.43683977 66.42879844 19.67166138 68.35643005 C20.30539673 69.34514099 20.93913208 70.33385193 21.59207153 71.3525238 C24.81335553 76.40513579 27.98271706 81.48992774 31.15213013 86.57518005 C37.57326155 96.86976749 44.03777543 107.13599751 50.52713013 117.38768005 C57.70514111 128.72728057 64.84619748 140.08899479 71.95339966 151.47312927 C77.29873406 160.0314164 82.67922455 168.56699609 88.07546997 177.09324646 C91.06502861 181.81841835 94.04918629 186.54700385 97.03445435 191.27488708 C99.49517378 195.1716252 101.95700096 199.06765194 104.42166138 202.9618988 C110.62840545 212.77255879 116.79450089 222.60791982 122.94241333 232.45555115 C129.477185 242.91824954 136.02937199 253.37133781 142.68338013 263.7587738 C148.55383182 272.92513588 152.62798038 279.31037902 152.68534851 290.48077393 C152.69028649 291.1833335 152.69522447 291.88589308 152.70031208 292.60974234 C152.71563619 294.95735014 152.72403385 297.30493069 152.73245239 299.65257263 C152.74203492 301.3380202 152.75204522 303.02346539 152.76245117 304.70890808 C152.78946571 309.28076497 152.81049395 313.85263214 152.83045316 318.42452455 C152.852334 323.20382193 152.87971242 327.98308773 152.9065094 332.76235962 C152.9564079 341.81095546 153.00135728 350.85956886 153.04453176 359.90819901 C153.09392843 370.21043726 153.14883755 380.51264382 153.20421135 390.8148514 C153.31798777 412.00576475 153.42483627 433.19670837 153.52713013 454.38768005 C154.79077655 453.44768601 156.05334093 452.50623726 157.31546021 451.56419373 C158.01866898 451.04008408 158.72187775 450.51597443 159.44639587 449.97598267 C162.4721666 447.66629821 165.34551182 445.19983528 168.21463013 442.70018005 C169.42913104 441.65030416 170.64398326 440.60083454 171.85916138 439.55174255 C172.46711548 439.02612732 173.07506958 438.50051208 173.70144653 437.95896912 C176.0352906 435.95032772 178.3856522 433.96183914 180.73977661 431.97703552 C182.36451521 430.60690055 183.98514306 429.23203009 185.60525513 427.85643005 C187.39623782 426.34319334 189.19631768 424.84054557 191.01150513 423.35643005 C191.71791138 422.76861755 192.42431763 422.18080505 193.15213013 421.57518005 C194.03771606 420.85394958 194.03771606 420.85394958 194.94119263 420.1181488 C200.42641401 414.13304271 199.9521068 407.66316427 199.91189575 400.0075531 C199.91726852 398.76292297 199.9226413 397.51829285 199.92817688 396.23594666 C199.93795191 393.53644928 199.94239744 390.83756405 199.93782043 388.13811302 C199.93098824 383.86302719 199.9469182 379.5882081 199.96621704 375.31317139 C200.00402347 366.23385527 200.01685865 357.15456279 200.02713013 348.07518005 C200.03821839 338.28195251 200.05369155 328.48884877 200.09784269 318.69570571 C200.11611979 314.45310984 200.1201197 310.21082101 200.11290741 305.96819532 C200.11101756 302.69741995 200.12830488 299.42673037 200.1423645 296.1559906 C200.13314217 294.40929832 200.13314217 294.40929832 200.12373352 292.62731934 C200.18942889 283.90447399 201.62709062 276.73165423 206.46072388 269.36424255 C207.02098267 268.49839539 207.58124146 267.63254822 208.15847778 266.74046326 C208.75450806 265.8402948 209.35053833 264.94012634 209.96463013 264.01268005 C211.23195618 262.06111616 212.49887636 260.10928865 213.76541138 258.1572113 C214.7160144 256.70242371 214.7160144 256.70242371 215.68582153 255.21824646 C218.38314253 251.07176812 221.01942145 246.88786245 223.65213013 242.70018005 C224.63757643 241.13753449 225.62325266 239.57503391 226.60916138 238.01268005 C227.09207642 237.24697693 227.57499146 236.4812738 228.07254028 235.69236755 C229.51794802 233.40222841 230.96553697 231.11348348 232.41384888 228.82518005 C237.97902092 220.02967097 243.51514844 211.2166312 249.02713013 202.38768005 C255.9669852 191.27159788 262.95662285 180.18779576 269.96560669 169.11521912 C276.01462422 159.55703523 282.03682834 149.9827921 288.02713013 140.38768005 C294.9669852 129.27159788 301.95662285 118.18779576 308.96560669 107.11521912 C315.65684442 96.54224916 322.31219039 85.94764426 328.93362427 75.33079529 C331.95311898 70.4925064 334.98207287 65.66097842 338.04275513 60.84861755 C338.58996216 59.9875238 339.13716919 59.12643005 339.70095825 58.23924255 C340.71796058 56.64127608 341.7373209 55.04480671 342.759552 53.45018005 C343.21394653 52.73603943 343.66834106 52.0218988 344.13650513 51.28611755 C344.52805786 50.67429626 344.9196106 50.06247498 345.32302856 49.43211365 C346.85847486 46.8250927 348.1740482 44.09384391 349.52713013 41.38768005 C235.34713013 41.38768005 121.16713013 41.38768005 3.52713013 41.38768005 Z " fill="#ffffff" transform="translate(79.47286987304688,-0.3876800537109375)"/>
</svg>
